<?xml version="1.0" encoding="utf-8"?>
<!-- Many Icons, but not all, were taken straight from https://github.com/google/material-design-icons under Apache 2.0  -->
<!DOCTYPE svg PUBLIC "-//W3C//DTD SVG 1.1//EN" "http://www.w3.org/Graphics/SVG/1.1/DTD/svg11.dtd">
<svg version="1.1" xmlns="http://www.w3.org/2000/svg" xmlns:xlink="http://www.w3.org/1999/xlink" x="0px" y="0px" width="100px"
	 height="100px" viewBox="0 0 610 406" style="enable-background:new 0 0 610 406;" xml:space="preserve">
<style type="text/css">
<![CDATA[
	.st0{fill:none;}
	.st1{fill:#333333;}
]]>
</style>
<view id="oo-dup" viewBox="0 -7 100 100" />   <!-- pos slightly corrected: shift down to be better in-line -->
<g id="_x31__1_">
	<rect class="st0" width="100" height="100"/>
	<path class="st1" d="M77,25H39c-4.4,0-8,3.6-8,8v50c0,4.4,3.6,8,8,8h38c4.4,0,8-3.6,8-8V33C85,28.6,81.4,25,77,25z M77,83H39V33h38
		V83z M65,9H23c-4.4,0-8,3.6-8,8v54h8V17h42V9z"/>
</g>
<view id="oo-fav" viewBox="100 -7 100 100" />
<g id="_x32_">
	<rect x="102" class="st0" width="100" height="100"/>
	<path class="st1" d="M152.402,90l-6.323-5.757C123.627,63.884,108,50.458,108,33.979C108,20.55,119.354,10,132.783,10
		c7.587,0,14.868,3.532,19.619,9.112c4.751-5.58,12.032-9.112,19.619-9.112C185.449,10,196,20.55,196,33.979
		c0,16.479-14.826,29.905-37.276,50.312L152.402,90z"/>
</g>
<view id="oo-nofav" viewBox="200 -7 100 100" />
<g id="_x33_">
	<rect x="204" class="st0" width="100" height="100"/>
	<path class="st1" d="M274.021,10c-7.587,0-14.867,3.532-19.619,9.112C249.651,13.532,242.37,10,234.783,10
		C221.354,10,210,20.55,210,33.979c0,16.479,15.627,29.905,38.079,50.264L254.402,90l6.322-5.709
		C283.174,63.884,298,50.458,298,33.979C298,20.55,287.449,10,274.021,10z M255.546,78.186l-1.122,1.015l-3.769-3.418
		C230.991,57.979,218,46.216,218,33.979C218,25.168,225.529,18,234.783,18c5.113,0,10.17,2.354,13.528,6.298l6.091,7.154
		l6.091-7.153c3.358-3.944,8.416-6.298,13.528-6.298C282.981,18,290,25.019,290,33.979C290,46.869,276.293,59.327,255.546,78.186z"
		/>
</g>
<view id="oo-timed" viewBox="300 -7 100 100" />
<g id="_x34_">
	<rect x="306" class="st0" width="100" height="100"/>
	<path class="st1" d="M356,10c-22.091,0-40,17.909-40,40s17.909,40,40,40s40-17.909,40-40S378.091,10,356,10z M356,82
		c-17.645,0-32-14.355-32-32s14.355-32,32-32s32,14.355,32,32S373.645,82,356,82z M369.336,62.496L353,51.605V32h6v16.395
		l13.664,9.109L369.336,62.496z"/>
</g>
<view id="oo-blocked" viewBox="400 -7 100 100" />
<g id="_x35_">
	<rect x="408" class="st0" width="100" height="100"/>
	<path class="st1" d="M458,10c-22.091,0-40,17.909-40,40s17.909,40,40,40s40-17.909,40-40S480.091,10,458,10z M426,50
		c0-17.645,14.355-32,32-32c7.384,0,14.186,2.521,19.606,6.737l-44.869,44.87C428.521,64.186,426,57.384,426,50z M458,82
		c-7.384,0-14.186-2.521-19.606-6.737l44.869-44.87C487.479,35.814,490,42.616,490,50C490,67.645,475.645,82,458,82z"/>
</g>
<view id="oo-recipe" viewBox="500 -7 100 100" />
<g id="_x36_">
	<rect x="510" class="st0" width="100" height="100"/>
	<path class="st1" d="M538,35h-20V15h20V35z M538,40h-20v20h20V40z M538,65h-20v20h20V65z M602,15h-59v20h59V15z M602,40h-59v20h59
		V40z M602,65h-59v20h59V65z"/>
</g>
<view id="oo-pack" viewBox="0 93 100 100" />
<g id="_x37_">
	<rect y="102" class="st0" width="100" height="100"/>
	<path class="st1" d="M45,155H11v-42h34V155z M45,165H11v26h34V165z M89,113H55v26h34V113z M89,149H55v42h34V149z"/>
</g>
<view id="oo-saleout" viewBox="100 93 100 100" />
<g id="_x38_">
	<rect x="102" y="102" class="st0" width="100" height="100"/>
	<path class="st1" d="M111,186h48v8h-48V186z M182.542,191.545l11.388-11.387l-53.154-53.164l-11.396,11.384L182.542,191.545z
		 M112.292,155.467l22.781,22.787l11.393-11.392l-22.786-22.785L112.292,155.467z M146.47,121.289l22.781,22.788l11.393-11.393
		l-22.786-22.785L146.47,121.289z"/>
</g>
<view id="oo-att" viewBox="200 93 100 100" />
<g id="_x39_">
	<rect x="204" y="102" class="st0" width="100" height="100"/>
	<path class="st1" d="M207,192h94l-46.666-80L207,192z M258,177h-8v-8h8V177z M258,163h-8v-16h8V163z"/>
</g>
<view id="oo-specials" viewBox="300 93 100 100" />
<g id="_x31_0">
	<rect x="306" y="102" class="st0" width="100" height="100"/>
	<path class="st1" d="M356,112c-22.092,0-40,17.909-40,40s17.908,40,40,40s40-17.909,40-40S378.092,112,356,112z M356,184
		c-17.645,0-32-14.355-32-32s14.355-32,32-32s32,14.355,32,32S373.645,184,356,184z M348,143c0,3.866-3.134,7-7,7s-7-3.134-7-7
		s3.134-7,7-7S348,139.134,348,143z M378,143c0,3.866-3.134,7-7,7s-7-3.134-7-7s3.134-7,7-7S378,139.134,378,143z M377.563,160
		c-3.257,8.75-11.693,15-21.563,15s-18.306-6.25-21.563-15H377.563z"/>
</g>
<view id="oo-offtimed" viewBox="400 93 100 100" />
<g id="_x31_1">
	<rect x="408" y="102" class="st0" width="100" height="100"/>
	<path class="st1" d="M480.881,173.658L468,164.961V149h4v13.835l11.119,7.507L480.881,173.658z M498,164c0,15.464-12.536,28-28,28
		s-28-12.536-28-28c0-15.463,12.536-28,28-28S498,148.537,498,164z M492,164c0-12.131-9.869-22-22-22s-22,9.869-22,22
		s9.869,22,22,22S492,176.131,492,164z M418,140h8v-28h-8V140z M418,153h8v-8h-8V153z M432,140h8v-28h-8V140z M432,153h8v-8h-8V153z
		"/>
</g>
<view id="oo-ok" viewBox="500 93 100 100" />
<g id="_x31_2">
	<rect x="510" y="102" class="st0" width="100" height="100"/>
	<path class="st1" d="M596.955,131.331L550.286,178L523.5,151.215l5.657-5.656l21.129,21.128l41.012-41.012L596.955,131.331z"/>
</g>
<view id="oo-refresh" viewBox="0 200 100 100" />
<g id="_x31_3">
	<rect y="204" class="st0" width="100" height="100"/>
	<path class="st1" d="M50,240v-14c-15.439,0-28,12.561-28,28c0,4.707,1.172,9.143,3.232,13.04l-5.857,5.856
		C15.971,267.4,14,260.928,14,254c0-19.851,16.149-36,36-36v-14l18,18L50,240z M31.875,286l18,18v-14c19.851,0,36-16.149,36-36
		c0-6.928-1.972-13.4-5.376-18.896l-5.857,5.856c2.061,3.897,3.233,8.333,3.232,13.04c0,15.439-12.56,28-28,28v-14L31.875,286z"/>
</g>
<view id="oo-allok" viewBox="100 196 100 100" />
<g id="_x31_4">
	<rect x="102" y="204" class="st0" width="100" height="100"/>
	<path class="st1" d="M199.752,234.07l-46.669,46.669l-26.786-26.785l5.657-5.656l21.129,21.128l41.012-41.012L199.752,234.07z
		 M153.083,258.112l25.454-25.454L172.882,227l-25.456,25.455L153.083,258.112z M110.656,249.627L105,255.284l25.455,25.455
		l5.657-5.656L110.656,249.627z"/>
</g>
<view id="oo-pause" viewBox="200 193 100 100" />
<g id="_x31_5">
	<rect x="204" y="204" class="st0" width="100" height="100"/>
	<path class="st1" d="M273,278h-18v-18h18V278z M291,231v56c0,4.4-3.6,8-8,8h-58c-4.4,0-8-3.6-8-8v-56c0-4.4,3.6-8,8-8h8v-8h8v8h26
		v-8h8v8h8C287.4,223,291,226.6,291,231z M283,247h-58v40h58V247z"/>
</g>
<view id="oo-order" viewBox="300 193 100 100" />
<g id="_x31_6">
	<rect x="306" y="204" class="st0" width="100" height="100"/>
	<path class="st1" d="M340.001,278c-4.411,0-7.981,3.602-7.981,7.998c0,4.4,3.57,8.002,7.981,8.002c4.41,0,8.019-3.602,8.019-8.002
		C348.02,281.602,344.411,278,340.001,278z M316.001,214v8h8l14.398,30.359l-5.398,9.801c-0.642,1.121-1.001,2.441-1.001,3.84
		c0,4.398,3.602,8,8.001,8H388v-8h-46.319c-0.563,0-1.001-0.438-1.001-1l0.121-0.48l3.599-6.52H374.2c3,0,5.64-1.641,6.999-4.117
		l14.32-25.961c0.32-0.563,0.48-1.24,0.48-1.922c0-2.199-1.801-3.998-4-3.998h-59.16L329.078,214H316.001z M379.981,278
		c-4.41,0-7.98,3.602-7.98,7.998c0,4.4,3.57,8.002,7.98,8.002s8.02-3.602,8.02-8.002C388.001,281.602,384.392,278,379.981,278z"/>
</g>
<view id="oo-place" viewBox="400 193 100 100" />
<g id="_x31_7">
	<rect x="408" y="204" class="st0" width="100" height="100"/>
	<path class="st1" d="M458,214c-15.479,0-28,12.52-28,28c0,20.999,28,52,28,52s28-31.001,28-52C486,226.52,473.479,214,458,214z
		 M458,252.668c-5.889,0-10.666-4.78-10.666-10.668s4.777-10.667,10.666-10.667s10.666,4.779,10.666,10.667
		S463.889,252.668,458,252.668z"/>
</g>
<view id="oo-profile" viewBox="500 193 100 100" />
<g id="_x31_8">
	<rect x="510" y="204" class="st0" width="100" height="100"/>
	<path class="st1" d="M580,234c0,11.068-8.933,20-20,20s-20-8.932-20-20s8.933-20,20-20S580,222.932,580,234z M520,287.333
		c0-13.333,26.667-20.666,40-20.666s40,7.333,40,20.666V294h-80V287.333z"/>
</g>
<view id="oo-alarm" viewBox="0 304 100 100" />
<g id="_x31_9">
	<rect y="306" class="st0" width="100" height="100"/>
	<path class="st1" d="M74,372v-22.667c0-12.055-8.316-22.121-19-24.684v-3.316c0-2.945-2.054-5.333-5-5.333s-5,2.388-5,5.333v3.316
		c-10.684,2.563-19,12.629-19,24.684V372l-10,8v4h68v-4L74,372z M42,388c0,4.419,3.583,8,8,8s8-3.581,8-8H42z M58.593,387.796
		 M30.903,322.339C23.077,328.178,18,337.507,18,348h-8c0-13.116,6.347-24.777,16.129-32.076L30.903,322.339z M90,348h-8
		c0-10.825-5.409-20.406-13.66-26.199l4.585-6.55C83.239,322.492,90,334.468,90,348z"/>
</g>
<view id="oo-add" viewBox="100 297 100 100" />
	<g id="_x32_0">
	<rect x="102" y="306" class="st0" width="100" height="100"/>
	<path class="st1" d="M184,316h-64c-4.4,0-8,3.6-8,8v64c0,4.4,3.6,8,8,8h64c4.4,0,8-3.6,8-8v-64C192,319.6,188.4,316,184,316z
		 M184,388h-64v-64h64V388z M148,360h-16v-8h16v-16h8v16h16v8h-16v16h-8V360z"/>
</g>
<view id="oo-sub" viewBox="200 297 100 100" />
<g id="_x32_1">
	<rect x="204" y="306" class="st0" width="100" height="100"/>
	<path class="st1" d="M286,316h-64c-4.4,0-8,3.6-8,8v64c0,4.4,3.6,8,8,8h64c4.4,0,8-3.6,8-8v-64C294,319.6,290.4,316,286,316z
		 M286,388h-64v-64h64V388z M234,360v-8h40v8H234z"/>
</g>
<view id="oo-del" viewBox="300 297 100 100" />
<g id="_x32_2">
	<rect x="306" y="306" class="st0" width="100" height="100"/>
	<path class="st1" d="M331,389c0,4.4,3.6,8,8,8h36c4.4,0,8-3.6,8-8v-53h-52V389z M340.029,355.187l5.657-5.657L357,360.843
		l11.313-11.313l5.657,5.657L362.657,366.5l11.313,11.313l-5.657,5.657L357,372.157l-11.313,11.313l-5.657-5.657l11.313-11.313
		L340.029,355.187z M388,322v10h-62v-10h15l6-8h20l6,8H388z"/>
</g>
<view id="oo-search" viewBox="400 297 100 100 " />
<g id="_x32_3">
	<path  class="st1" d="M15.5 14h-.79l-.28-.27C15.41 12.59 16 11.11 16 9.5 16 5.91 13.09 3 9.5 3S3 5.91 3 9.5 5.91 16 9.5 16c1.61 0
	    3.09-.59 4.23-1.57l.27.28v.79l5 4.99L20.49 19l-4.99-5zm-6 0C7.01 14 5 11.99 5 9.5S7.01 5 9.5 5 14 7.01 14 9.5 11.99
	    14 9.5 14z" transform="translate(405, 310) scale(4)"/>
</g>

</svg>
